<svg width="172" height="51" viewBox="0 0 172 51" fill="none" xmlns="http://www.w3.org/2000/svg">
<path d="M165.186 0.635619H6.45979C3.24499 0.635619 0.638881 3.22843 0.638881 6.42681V43.842C0.638881 47.0404 3.24499 49.6332 6.45979 49.6332H165.186C168.401 49.6332 171.007 47.0404 171.007 43.842V6.42681C171.007 3.22843 168.401 0.635619 165.186 0.635619Z" fill="black"/>
<path d="M165.186 50.261H6.45979C2.89468 50.261 0 47.3811 0 43.8342V6.42681C0 2.8799 2.89468 0 6.45979 0H165.186C168.751 0 171.646 2.8799 171.646 6.42681V43.8342C171.646 47.3811 168.751 50.261 165.186 50.261ZM6.45979 1.27124C3.60455 1.27124 1.27776 3.58615 1.27776 6.42681V43.8342C1.27776 46.6748 3.60455 48.9897 6.45979 48.9897H165.186C168.041 48.9897 170.368 46.6748 170.368 43.8342V6.42681C170.368 3.5783 168.041 1.27124 165.186 1.27124H6.45979Z" fill="#A7A9AC"/>
<path d="M57.1443 14.2897L56.4266 16.6281H54.8649L57.5229 8.37291H59.4554L62.1529 16.6281H60.528L59.7787 14.2897H57.1443ZM59.5185 13.1518L58.8638 11.1194C58.7061 10.6172 58.572 10.0522 58.4458 9.57352H58.4221C58.2959 10.0522 58.1776 10.625 58.0277 11.1194L57.3889 13.1518H59.5185Z" fill="white"/>
<path d="M64.4165 10.6643L65.3867 13.6933C65.5602 14.219 65.6785 14.6977 65.7968 15.1842H65.8363C65.9467 14.6977 66.0808 14.2269 66.2464 13.6933L67.2087 10.6643H68.7941L66.5067 16.6281H65.016L62.7838 10.6643H64.4244H64.4165Z" fill="white"/>
<path d="M74.8279 15.1999C74.8279 15.7414 74.8516 16.2671 74.9226 16.636H73.5581L73.4476 15.9768H73.4082C73.0533 16.4398 72.4223 16.7694 71.6335 16.7694C70.4268 16.7694 69.7484 15.8983 69.7484 14.9959C69.7484 13.5049 71.0893 12.7281 73.3057 12.7438V12.6496C73.3057 12.2572 73.1479 11.6059 72.0831 11.6059C71.4916 11.6059 70.8763 11.7864 70.4741 12.0454L70.1823 11.0645C70.6239 10.7977 71.4048 10.5387 72.3513 10.5387C74.2758 10.5387 74.8279 11.755 74.8279 13.0655V15.2078V15.1999ZM73.353 13.7168C72.2803 13.7011 71.2628 13.9287 71.2628 14.8311C71.2628 15.4196 71.6414 15.6864 72.1226 15.6864C72.7378 15.6864 73.1716 15.2941 73.3135 14.8625C73.353 14.7526 73.353 14.6428 73.353 14.5329V13.709V13.7168Z" fill="white"/>
<path d="M77.7226 9.80894C77.2178 9.80894 76.8866 9.44012 76.8866 9.00068C76.8866 8.5377 77.2336 8.17673 77.7384 8.17673C78.2432 8.17673 78.5745 8.52985 78.5902 9.00068C78.5902 9.44012 78.259 9.80894 77.7384 9.80894H77.7226ZM76.9733 16.6281V10.6643H78.4877V16.6281H76.9733Z" fill="white"/>
<path d="M80.6646 7.92562H82.179V16.636H80.6646V7.92562Z" fill="white"/>
<path d="M89.0253 15.1999C89.0253 15.7414 89.049 16.2671 89.1199 16.636H87.7554L87.645 15.9768H87.6056C87.2506 16.4398 86.6196 16.7694 85.8309 16.7694C84.6241 16.7694 83.9458 15.8983 83.9458 14.9959C83.9458 13.5049 85.2867 12.7281 87.503 12.7438V12.6496C87.503 12.2572 87.3453 11.6059 86.2884 11.6059C85.6968 11.6059 85.0816 11.7864 84.6793 12.0454L84.3875 11.0645C84.8292 10.7977 85.61 10.5387 86.5565 10.5387C88.4732 10.5387 89.0332 11.755 89.0332 13.0655V15.2078L89.0253 15.1999ZM87.5503 13.7168C86.4777 13.7011 85.4602 13.9287 85.4602 14.8311C85.4602 15.4196 85.8388 15.6864 86.3199 15.6864C86.9351 15.6864 87.3689 15.2941 87.5109 14.8625C87.5503 14.7526 87.5503 14.6428 87.5503 14.5329V13.709V13.7168Z" fill="white"/>
<path d="M91.1628 7.92562H92.6772V11.4882H92.7008C93.0715 10.9154 93.7262 10.5309 94.6254 10.5309C96.0924 10.5309 97.1336 11.7472 97.1257 13.5599C97.1257 15.7021 95.7611 16.7694 94.4045 16.7694C93.6315 16.7694 92.9374 16.4712 92.5115 15.7414H92.4879L92.4169 16.636H91.1233C91.147 16.2279 91.1707 15.5687 91.1707 14.9724V7.92562H91.1628ZM92.6772 14.1719C92.6772 14.2975 92.6929 14.4152 92.7166 14.5251C92.8744 15.1371 93.4028 15.5766 94.0575 15.5766C95.0039 15.5766 95.5876 14.8311 95.5876 13.6148C95.5876 12.5633 95.0828 11.7079 94.0732 11.7079C93.458 11.7079 92.8901 12.1474 92.7324 12.8065C92.7087 12.9164 92.6851 13.0498 92.6851 13.1989V14.1641L92.6772 14.1719Z" fill="white"/>
<path d="M98.9082 7.92562H100.423V16.636H98.9082V7.92562Z" fill="white"/>
<path d="M103.68 14.0699C103.72 15.145 104.563 15.6158 105.526 15.6158C106.228 15.6158 106.717 15.506 107.19 15.349L107.411 16.377C106.89 16.5967 106.18 16.7537 105.321 16.7537C103.373 16.7537 102.229 15.5687 102.229 13.7404C102.229 12.0846 103.238 10.5309 105.163 10.5309C107.087 10.5309 107.75 12.1238 107.75 13.4343C107.75 13.7168 107.726 13.9365 107.703 14.0699H103.68ZM106.315 13.0184C106.33 12.4691 106.078 11.5588 105.068 11.5588C104.13 11.5588 103.735 12.4063 103.68 13.0184H106.315Z" fill="white"/>
<path d="M115.219 16.7694C113.532 16.7694 112.214 15.6158 112.214 13.6933C112.214 11.7707 113.508 10.5309 115.314 10.5309C117.12 10.5309 118.295 11.7786 118.295 13.5913C118.295 15.7806 116.742 16.7615 115.227 16.7615H115.212L115.219 16.7694ZM115.267 15.6786C116.126 15.6786 116.734 14.8468 116.734 13.6305C116.734 12.6967 116.316 11.6216 115.283 11.6216C114.249 11.6216 113.776 12.6653 113.776 13.654C113.776 14.8076 114.352 15.6786 115.251 15.6786H115.267Z" fill="white"/>
<path d="M120.078 12.4456C120.078 11.7629 120.054 11.1822 120.031 10.6721H121.348L121.419 11.5667H121.458C121.727 11.1037 122.381 10.5387 123.383 10.5387C124.385 10.5387 125.512 11.2136 125.512 13.0969V16.636H123.998V13.2695C123.998 12.4142 123.675 11.7629 122.854 11.7629C122.255 11.7629 121.837 12.1945 121.671 12.6418C121.624 12.7673 121.6 12.9478 121.6 13.1204V16.636H120.086V12.4456H120.078Z" fill="white"/>
<path d="M132.485 10.6643H133.928V11.7943H132.485V14.4152C132.485 15.1528 132.682 15.5138 133.258 15.5138C133.526 15.5138 133.676 15.4981 133.849 15.451L133.873 16.5889C133.652 16.6752 133.242 16.7458 132.777 16.7458C132.209 16.7458 131.759 16.5653 131.475 16.2593C131.144 15.914 130.994 15.3647 130.994 14.58V11.7864H130.142V10.6564H130.994V9.54213L132.485 9.12623V10.6643Z" fill="white"/>
<path d="M137.123 7.92562V11.4804H137.146C137.328 11.1979 137.588 10.9625 137.896 10.8055C138.203 10.6329 138.558 10.5387 138.945 10.5387C139.962 10.5387 141.035 11.2136 141.035 13.1204V16.636H139.521V13.2774C139.521 12.422 139.197 11.755 138.361 11.755C137.77 11.755 137.351 12.1474 137.178 12.6025C137.131 12.7359 137.115 12.9007 137.115 13.0577V16.636H135.6V7.92562H137.123Z" fill="white"/>
<path d="M144.261 14.0699C144.3 15.145 145.144 15.6158 146.107 15.6158C146.809 15.6158 147.298 15.506 147.771 15.349L147.992 16.377C147.471 16.5967 146.761 16.7537 145.901 16.7537C143.953 16.7537 142.81 15.5687 142.81 13.7404C142.81 12.0846 143.819 10.5309 145.744 10.5309C147.668 10.5309 148.331 12.1238 148.331 13.4343C148.331 13.7168 148.307 13.9365 148.283 14.0699H144.261ZM146.895 13.0184C146.911 12.4691 146.659 11.5588 145.649 11.5588C144.71 11.5588 144.316 12.4063 144.261 13.0184H146.895Z" fill="white"/>
<path d="M38.3092 24.64C38.2698 20.5517 41.6692 18.5664 41.827 18.4722C39.9024 15.6786 36.9131 15.2941 35.8641 15.2627C33.3559 15.0037 30.9266 16.7537 29.6488 16.7537C28.371 16.7537 26.3755 15.2862 24.2617 15.3255C21.5327 15.3726 18.985 16.942 17.5811 19.3746C14.6943 24.3497 16.8475 31.6554 19.616 35.681C21.0042 37.6506 22.6211 39.8478 24.7349 39.7693C26.8014 39.683 27.5744 38.4589 30.0747 38.4589C32.575 38.4589 33.277 39.7693 35.4382 39.7223C37.6624 39.683 39.0585 37.7448 40.3915 35.7595C41.9926 33.4995 42.6315 31.2787 42.663 31.1689C42.6078 31.1532 38.3486 29.5367 38.3013 24.6322" fill="white"/>
<path d="M34.2235 12.6261C35.3356 11.2371 36.1007 9.3538 35.8878 7.4391C34.2787 7.50972 32.2595 8.54554 31.1001 9.9031C30.0747 11.0959 29.1519 13.0577 29.3885 14.8939C31.2026 15.0273 33.0562 13.9836 34.2235 12.6182" fill="white"/>
<path d="M68.2341 39.4555H65.3473L63.7698 34.5118H58.2801L56.7736 39.4555H53.9657L59.408 22.6312H62.7681L68.2341 39.4555ZM63.2965 32.4401L61.8689 28.0457C61.719 27.5984 61.4351 26.5391 61.0171 24.8755H60.9697C60.8041 25.5896 60.5359 26.6489 60.1652 28.0457L58.7613 32.4401H63.3044H63.2965Z" fill="white"/>
<path d="M82.2342 33.2405C82.2342 35.3043 81.6742 36.9365 80.5542 38.1293C79.5525 39.1965 78.3063 39.7223 76.8156 39.7223C75.2065 39.7223 74.055 39.1494 73.353 38.0037H73.3057V44.3913H70.5924V31.3101C70.5924 30.0153 70.5608 28.6813 70.4899 27.3159H72.8719L73.0217 29.2385H73.0769C73.9761 27.7867 75.3485 27.0648 77.1863 27.0648C78.6218 27.0648 79.8286 27.6298 80.7829 28.7598C81.7452 29.8898 82.2263 31.3807 82.2263 33.2248M79.4657 33.3268C79.4657 32.1498 79.1976 31.1689 78.6612 30.4077C78.0776 29.6073 77.2888 29.2071 76.3029 29.2071C75.6325 29.2071 75.0251 29.4268 74.4809 29.8662C73.9367 30.3135 73.5817 30.8864 73.4161 31.6005C73.3293 31.9379 73.2899 32.2047 73.2899 32.4244V34.449C73.2899 35.3279 73.5581 36.0733 74.1023 36.6776C74.6465 37.2896 75.3564 37.5878 76.224 37.5878C77.2415 37.5878 78.0381 37.2033 78.606 36.4186C79.1739 35.6339 79.4578 34.6059 79.4578 33.319" fill="white"/>
<path d="M96.2581 33.2405C96.2581 35.3043 95.698 36.9365 94.578 38.1293C93.5763 39.1965 92.3301 39.7223 90.8394 39.7223C89.2383 39.7223 88.0788 39.1494 87.3768 38.0037H87.3295V44.3913H84.6241V31.3101C84.6241 30.0153 84.5926 28.6813 84.5216 27.3159H86.9036L87.0534 29.2385H87.1086C88.0078 27.7867 89.3802 27.0648 91.218 27.0648C92.6535 27.0648 93.8524 27.6298 94.8147 28.7598C95.7769 29.8898 96.2581 31.3807 96.2581 33.2248M93.4975 33.3268C93.4975 32.1498 93.2293 31.1689 92.6929 30.4077C92.1093 29.6073 91.3205 29.2071 90.3346 29.2071C89.6642 29.2071 89.0568 29.4268 88.5126 29.8662C87.9684 30.3135 87.6134 30.8864 87.4478 31.6005C87.361 31.9379 87.3216 32.2047 87.3216 32.4244V34.449C87.3216 35.3279 87.5898 36.0733 88.134 36.6776C88.6782 37.2896 89.3802 37.5878 90.2557 37.5878C91.2732 37.5878 92.0698 37.2033 92.6377 36.4186C93.2056 35.6339 93.4896 34.6059 93.4896 33.319" fill="white"/>
<path d="M111.938 34.7393C111.938 36.1675 111.441 37.3367 110.432 38.2313C109.327 39.2122 107.797 39.7066 105.825 39.7066C104.003 39.7066 102.544 39.3613 101.44 38.6629L102.071 36.4186C103.262 37.1327 104.563 37.4937 105.991 37.4937C107.009 37.4937 107.805 37.2661 108.373 36.811C108.941 36.348 109.225 35.7359 109.225 34.9747C109.225 34.292 108.988 33.7192 108.523 33.2484C108.058 32.7775 107.277 32.3459 106.188 31.9457C103.231 30.8471 101.748 29.2385 101.748 27.1197C101.748 25.7386 102.268 24.6008 103.302 23.7219C104.335 22.8352 105.715 22.3958 107.442 22.3958C108.98 22.3958 110.258 22.6626 111.276 23.1962L110.597 25.3934C109.643 24.8755 108.562 24.6165 107.364 24.6165C106.409 24.6165 105.668 24.8519 105.131 25.3149C104.682 25.7308 104.453 26.2409 104.453 26.8372C104.453 27.5043 104.713 28.0536 105.226 28.4851C105.676 28.8854 106.496 29.3169 107.687 29.7878C109.138 30.3685 110.211 31.0512 110.897 31.8359C111.583 32.6206 111.922 33.5936 111.922 34.755" fill="white"/>
<path d="M120.89 29.3483H117.909V35.2415C117.909 36.7403 118.437 37.4858 119.494 37.4858C119.976 37.4858 120.378 37.4466 120.693 37.3603L120.764 39.4084C120.236 39.6046 119.526 39.7066 118.658 39.7066C117.586 39.7066 116.75 39.3848 116.15 38.7335C115.551 38.0822 115.243 36.9915 115.243 35.4613V29.3483H113.461V27.3238H115.243V25.103L117.901 24.3026V27.3238H120.883V29.3483H120.89Z" fill="white"/>
<path d="M134.362 33.2954C134.362 35.1631 133.826 36.6933 132.761 37.886C131.641 39.118 130.15 39.7301 128.297 39.7301C126.443 39.7301 125.079 39.1416 124.022 37.9567C122.957 36.7796 122.429 35.2886 122.429 33.4916C122.429 31.6083 122.973 30.0703 124.069 28.8775C125.165 27.6769 126.64 27.0805 128.494 27.0805C130.347 27.0805 131.72 27.669 132.808 28.854C133.849 30.0075 134.362 31.4828 134.362 33.2954ZM131.554 33.3818C131.554 32.2675 131.31 31.3023 130.829 30.5019C130.261 29.5367 129.448 29.0501 128.399 29.0501C127.35 29.0501 126.483 29.5367 125.915 30.5019C125.426 31.3023 125.189 32.2753 125.189 33.4288C125.189 34.5824 125.426 35.5083 125.915 36.3088C126.498 37.274 127.319 37.7605 128.376 37.7605C129.433 37.7605 130.221 37.2661 130.805 36.2852C131.31 35.4691 131.554 34.5039 131.554 33.3818Z" fill="white"/>
<path d="M143.165 29.7015C142.896 29.6544 142.612 29.6308 142.313 29.6308C141.358 29.6308 140.625 29.9918 140.104 30.7059C139.655 31.3415 139.426 32.1341 139.426 33.0993V39.4633H136.721L136.744 31.1532C136.744 29.7564 136.713 28.4851 136.642 27.3316H139L139.102 29.6544H139.173C139.457 28.854 139.915 28.2105 140.53 27.7318C141.13 27.3002 141.784 27.0805 142.486 27.0805C142.739 27.0805 142.959 27.0962 143.165 27.1276V29.7015Z" fill="white"/>
<path d="M155.28 32.8168C155.28 33.3033 155.248 33.7035 155.185 34.0409H147.061C147.092 35.2415 147.487 36.1518 148.236 36.7874C148.922 37.3524 149.806 37.6349 150.894 37.6349C152.093 37.6349 153.189 37.4466 154.183 37.0621L154.609 38.9375C153.458 39.4398 152.093 39.6909 150.516 39.6909C148.631 39.6909 147.14 39.1337 146.067 38.0273C144.994 36.9208 144.45 35.4377 144.45 33.5701C144.45 31.7025 144.955 30.2194 145.957 29.0031C147.006 27.7083 148.433 27.057 150.216 27.057C151.998 27.057 153.308 27.7083 154.207 29.0031C154.925 30.0389 155.28 31.3101 155.28 32.8246M152.7 32.1262C152.716 31.3258 152.543 30.6353 152.172 30.0546C151.707 29.3091 150.981 28.9324 150.011 28.9324C149.127 28.9324 148.41 29.3013 147.858 30.031C147.408 30.6117 147.14 31.3101 147.061 32.1262H152.7Z" fill="white"/>
</svg>
