<svg width="172" height="51" viewBox="0 0 172 51" fill="none" xmlns="http://www.w3.org/2000/svg">
<g clip-path="url(#clip0_184_150)">
<path d="M165.548 0.63562H6.81409C3.59914 0.63562 0.992912 3.22843 0.992912 6.42681V43.842C0.992912 47.0404 3.59914 49.6332 6.81409 49.6332H165.548C168.763 49.6332 171.369 47.0404 171.369 43.842V6.42681C171.369 3.22843 168.763 0.63562 165.548 0.63562Z" fill="black"/>
<path d="M165.548 50.261H6.8141C3.24882 50.261 0.354004 47.3811 0.354004 43.8342V6.42681C0.354004 2.8799 3.24882 0 6.8141 0H165.548C169.113 0 172.008 2.8799 172.008 6.42681V43.8342C172.008 47.3811 169.113 50.261 165.548 50.261ZM6.8141 1.27124C3.95872 1.27124 1.63182 3.58615 1.63182 6.43466V43.842C1.63182 46.6827 3.95872 48.9976 6.8141 48.9976H165.548C168.403 48.9976 170.73 46.6827 170.73 43.842V6.42681C170.73 3.5783 168.403 1.26339 165.548 1.26339H6.8141V1.27124Z" fill="#A7A9AC"/>
<path d="M86.9461 27.4885C83.9645 27.4885 81.5272 29.7485 81.5272 32.856C81.5272 35.9635 83.9566 38.2234 86.9461 38.2234C89.9355 38.2234 92.365 35.9478 92.365 32.856C92.365 29.7642 89.9355 27.4885 86.9461 27.4885ZM86.9461 36.1126C85.3133 36.1126 83.9014 34.7707 83.9014 32.856C83.9014 30.9413 85.3133 29.5994 86.9461 29.5994C88.5788 29.5994 89.9907 30.9177 89.9907 32.856C89.9907 34.7942 88.5788 36.1126 86.9461 36.1126ZM75.1302 27.4885C72.1486 27.4885 69.7113 29.7485 69.7113 32.856C69.7113 35.9635 72.1407 38.2234 75.1302 38.2234C78.1196 38.2234 80.5491 35.9478 80.5491 32.856C80.5491 29.7642 78.1196 27.4885 75.1302 27.4885ZM75.1302 36.1126C73.4974 36.1126 72.0855 34.7707 72.0855 32.856C72.0855 30.9413 73.4974 29.5994 75.1302 29.5994C76.7629 29.5994 78.1748 30.9177 78.1748 32.856C78.1748 34.7942 76.7629 36.1126 75.1302 36.1126ZM61.0741 29.1364V31.4121H66.5483C66.3826 32.6912 65.9567 33.625 65.302 34.2763C64.5053 35.0689 63.2591 35.9399 61.0741 35.9399C57.6982 35.9399 55.0636 33.2327 55.0636 29.8819C55.0636 26.5312 57.6982 23.8239 61.0741 23.8239C62.8962 23.8239 64.2214 24.538 65.1994 25.4483L66.8164 23.8396C65.444 22.537 63.6298 21.5404 61.0741 21.5404C56.4519 21.5404 52.5711 25.2835 52.5711 29.8741C52.5711 34.4647 56.4519 38.2077 61.0741 38.2077C63.5667 38.2077 65.4519 37.3916 66.919 35.8693C68.4334 34.3626 68.8988 32.2518 68.8988 30.5411C68.8988 30.0153 68.8594 29.521 68.7726 29.1207H61.0662L61.0741 29.1364ZM118.552 30.9021C118.103 29.7014 116.73 27.4885 113.93 27.4885C111.13 27.4885 108.843 29.6622 108.843 32.856C108.843 35.8614 111.13 38.2234 114.198 38.2234C116.675 38.2234 118.103 36.7168 118.694 35.8458L116.857 34.6294C116.241 35.524 115.405 36.1126 114.198 36.1126C112.992 36.1126 112.132 35.5633 111.58 34.4882L118.797 31.522L118.552 30.9099V30.9021ZM111.193 32.6912C111.13 30.6196 112.81 29.5602 114.017 29.5602C114.956 29.5602 115.752 30.031 116.02 30.698L111.201 32.6912H111.193ZM105.325 37.8939H107.699V22.1132H105.325V37.8939ZM101.444 28.6813H101.365C100.836 28.0535 99.811 27.4807 98.5253 27.4807C95.8277 27.4807 93.3509 29.8427 93.3509 32.8717C93.3509 35.9007 95.8277 38.2156 98.5253 38.2156C99.811 38.2156 100.836 37.6428 101.365 36.9993H101.444V37.7683C101.444 39.8243 100.34 40.9229 98.5648 40.9229C97.1134 40.9229 96.2142 39.887 95.8435 39.0082L93.7769 39.8635C94.3685 41.2838 95.946 43.0337 98.5569 43.0337C101.333 43.0337 103.684 41.4094 103.684 37.4387V27.8024H101.436V28.6735L101.444 28.6813ZM98.7225 36.1047C97.0897 36.1047 95.7173 34.7393 95.7173 32.8717C95.7173 31.0041 97.0897 29.5994 98.7225 29.5994C100.355 29.5994 101.602 30.9805 101.602 32.8717C101.602 34.7628 100.332 36.1047 98.7225 36.1047ZM129.65 22.1132H123.979V37.8939H126.346V31.9143H129.65C132.277 31.9143 134.856 30.0232 134.856 27.0177C134.856 24.0123 132.277 22.1211 129.65 22.1211V22.1132ZM129.714 29.7171H126.346V24.3104H129.714C131.48 24.3104 132.49 25.77 132.49 27.0177C132.49 28.2654 131.488 29.725 129.714 29.725V29.7171ZM144.345 27.4493C142.634 27.4493 140.859 28.2026 140.125 29.8662L142.224 30.7373C142.673 29.8662 143.509 29.5837 144.385 29.5837C145.607 29.5837 146.854 30.3135 146.877 31.6161V31.7809C146.451 31.5377 145.529 31.1689 144.409 31.1689C142.145 31.1689 139.842 32.4087 139.842 34.7236C139.842 36.8345 141.695 38.192 143.778 38.192C145.371 38.192 146.246 37.478 146.799 36.6462H146.877V37.8625H149.165V31.8123C149.165 29.0109 147.067 27.4493 144.353 27.4493H144.345ZM144.061 36.0969C143.288 36.0969 142.208 35.7124 142.208 34.755C142.208 33.5387 143.557 33.0679 144.716 33.0679C145.757 33.0679 146.246 33.2876 146.877 33.5936C146.696 35.0532 145.426 36.089 144.061 36.089V36.0969ZM157.486 27.7946L154.773 34.6373H154.694L151.878 27.7946H149.331L153.55 37.3524L151.145 42.6728H153.614L160.121 27.7946H157.486ZM136.166 37.886H138.532V22.1054H136.166V37.886Z" fill="white"/>
<path d="M13.7396 9.55782C13.3688 9.94233 13.1559 10.5466 13.1559 11.3313V39.22C13.1559 40.0047 13.3767 40.6011 13.7396 40.9935L13.8342 41.0877L29.5388 25.464V25.0952L13.8342 9.4715L13.7396 9.56566V9.55782Z" fill="#5BC9F4"/>
<path d="M34.7763 30.6745L29.5388 25.464V25.0952L34.7763 19.8847L34.8946 19.9553L41.0944 23.463C42.8691 24.4674 42.8691 26.0996 41.0944 27.1041L34.8946 30.6117L34.7763 30.6823V30.6745Z" fill="url(#paint0_linear_184_150)"/>
<path d="M34.8946 30.6038L29.5388 25.2756L13.7396 40.9935C14.3233 41.6055 15.2856 41.684 16.3741 41.0719L34.8946 30.6038Z" fill="url(#paint1_linear_184_150)"/>
<path d="M34.8946 19.9474L16.3741 9.47935C15.2856 8.86728 14.3233 8.9379 13.7396 9.55783L29.5388 25.2757L34.8946 19.9474Z" fill="url(#paint2_linear_184_150)"/>
<path d="M58.6684 10.4524C58.1951 10.0287 57.5641 9.76186 56.87 9.76186C55.3082 9.76186 54.1092 11.0409 54.1092 12.6182C54.1092 14.1955 55.3082 15.4589 56.87 15.4589C58.2109 15.4589 59.189 14.682 59.2521 13.4579H57.1302V12.5868H60.4037C60.4037 15.1921 59.0075 16.4241 56.87 16.4241C54.7324 16.4241 53.0996 14.7213 53.0996 12.6182C53.0996 10.5152 54.7481 8.8045 56.87 8.8045C57.8559 8.8045 58.7472 9.18117 59.394 9.7854L58.6684 10.4524Z" fill="white"/>
<path d="M66.1933 8.89081V9.82462H62.7779V12.1945H65.7595V13.1361H62.7779V15.3804H66.2958V16.3142H61.7683V8.89081H66.1854H66.1933Z" fill="white"/>
<path d="M72.7244 8.89081V9.84031H70.4606V16.3142H69.4431V9.84031H67.1793V8.89081H72.7244Z" fill="white"/>
<path d="M77.5596 8.89081V16.3142H76.55V8.89081H77.5596Z" fill="white"/>
<path d="M84.4299 8.89081V9.84031H82.1661V16.3142H81.1485V9.84031H78.8848V8.89081H84.4299Z" fill="white"/>
<path d="M91.5367 8.8045C93.6743 8.8045 95.3308 10.5073 95.3308 12.6182C95.3308 14.7291 93.6743 16.4241 91.5367 16.4241C89.3992 16.4241 87.7664 14.7213 87.7664 12.6182C87.7664 10.5152 89.4149 8.8045 91.5367 8.8045ZM91.5367 15.451C93.1064 15.451 94.3132 14.1876 94.3132 12.6182C94.3132 11.0488 93.1143 9.7697 91.5367 9.7697C89.9592 9.7697 88.776 11.0409 88.776 12.6182C88.776 14.1955 89.975 15.451 91.5367 15.451Z" fill="white"/>
<path d="M101.286 16.3142L97.8864 10.7192V16.3142H96.8768V8.89081H97.8706L101.239 14.4387V8.89081H102.248V16.3142H101.286Z" fill="white"/>
</g>
<defs>
<linearGradient id="paint0_linear_184_150" x1="39.9428" y1="25.2757" x2="9.26719" y2="25.2757" gradientUnits="userSpaceOnUse">
<stop stop-color="#FEE000"/>
<stop offset="0.42" stop-color="#FBBC0E"/>
<stop offset="0.78" stop-color="#F9A318"/>
<stop offset="1" stop-color="#F99B1C"/>
</linearGradient>
<linearGradient id="paint1_linear_184_150" x1="31.984" y1="28.1712" x2="3.28736" y2="57.0165" gradientUnits="userSpaceOnUse">
<stop stop-color="#EF4547"/>
<stop offset="1" stop-color="#C6186D"/>
</linearGradient>
<linearGradient id="paint2_linear_184_150" x1="3.00429" y1="-6.44251" x2="26.4356" y2="17.1101" gradientUnits="userSpaceOnUse">
<stop stop-color="#279E6F"/>
<stop offset="0.04" stop-color="#2B9F6E"/>
<stop offset="0.46" stop-color="#52B16B"/>
<stop offset="0.8" stop-color="#6BBC69"/>
<stop offset="1" stop-color="#74C169"/>
</linearGradient>
<clipPath id="clip0_184_150">
<rect width="171.646" height="50.261" fill="white" transform="translate(0.354004)"/>
</clipPath>
</defs>
</svg>
