<svg width="120" height="35" viewBox="0 0 120 35" fill="none" xmlns="http://www.w3.org/2000/svg">
<path d="M67.4552 17.4105C68.2078 17.2334 68.993 17.1402 69.7084 16.8606C70.5726 16.5251 71.4088 16.0824 72.1986 15.5931C72.7189 15.2715 73.1556 15.2622 73.6016 15.6164C74.5354 16.3527 75.0744 17.35 75.1394 18.5197C75.1626 18.9251 74.8839 19.4191 74.6005 19.7546C72.3798 22.4063 70.2706 25.1372 68.5841 28.171C68.2264 28.8187 67.9337 29.5178 67.7293 30.2308C67.4552 31.1768 68.0266 31.7407 68.8954 31.3073C69.9454 30.776 71.0278 30.1702 71.8502 29.35C73.4715 27.7282 74.9396 25.948 76.4449 24.2098C76.6865 23.9302 76.8073 23.5387 76.9652 23.1939C79.9896 16.4785 83.7342 10.1872 88.078 4.25011C88.4172 3.78875 88.7981 3.35069 89.2023 2.94525C89.718 2.42797 90.243 2.37671 90.8887 2.71224C92.0409 3.31341 92.7889 4.95846 92.2732 6.15613C91.8086 7.24196 91.2139 8.30449 90.5031 9.24119C89.5229 10.5274 88.3428 11.6552 87.3161 12.9041C86.308 14.1344 85.3881 15.4346 84.4264 16.7068C84.4636 16.7488 84.5007 16.7861 84.5379 16.828C84.6494 16.7674 84.7609 16.7162 84.8631 16.6509C85.0954 16.4971 85.3184 16.3387 85.5507 16.1802C88.7191 14.0039 91.344 15.8633 92.4497 18.2214C93.2627 19.9503 93.0537 21.6886 92.3986 23.3803C90.9909 27.0199 88.7331 30.0071 85.4624 32.1694C83.9804 33.1481 82.359 33.7585 80.5332 33.6141C78.6935 33.4696 77.3462 32.5329 76.3659 31.0044C76.2312 30.7947 76.1011 30.5756 75.9338 30.3053C75.6923 30.5057 75.5018 30.6642 75.3113 30.8273C73.885 32.0529 72.338 33.0735 70.4611 33.3904C68.2357 33.7632 66.2705 33.1853 64.7328 31.475C63.6038 30.2214 63.3669 28.7721 63.9894 27.1923C64.7513 25.2537 66.0243 23.6552 67.3484 22.0894C67.8269 21.5255 68.324 20.9756 68.8583 20.3698C67.8129 20.0855 66.8466 19.8199 65.8199 19.5356C65.5783 19.9597 65.3414 20.4117 65.0766 20.8451C63.5992 23.2638 62.1869 25.729 60.6026 28.0731C59.2786 30.0304 57.5736 31.6521 55.4504 32.7613C54.1868 33.423 52.858 33.7446 51.4504 33.3158C50.3307 32.9756 49.4898 32.2253 48.7976 31.3026C48.5978 31.037 48.4074 30.7574 48.0589 30.2727C47.8917 30.5523 47.808 30.79 47.6454 30.9438C47.0601 31.503 46.4979 32.0949 45.8429 32.5609C43.7801 34.0382 41.4061 33.7679 39.7104 31.8758C39.2179 31.3259 38.8323 30.6781 38.3492 30.0071C38.154 30.1096 37.9217 30.2308 37.6848 30.3519C35.701 31.3772 33.6708 31.8525 31.4919 30.9438C31.3107 30.8692 30.9669 31.0137 30.7765 31.1628C29.3967 32.2207 27.9565 33.1527 26.2189 33.5022C22.2839 34.2898 18.911 30.8879 19.882 26.9919C21.0017 22.4948 23.529 18.8645 27.0738 15.9239C28.7695 14.5212 30.586 14.3861 32.5326 15.4113C33.9774 16.1709 35.2272 17.1216 36.0216 18.5849C36.9229 20.2393 36.6906 21.9263 36.1424 23.6086C35.5291 25.5007 34.4745 27.1504 33.2202 28.6789C33.0808 28.8513 32.9507 29.0331 32.6998 29.3733C33.0994 29.35 33.3456 29.4059 33.5129 29.3174C34.3119 28.8886 35.1668 28.5112 35.8636 27.9473C37.5454 26.5818 38.8974 24.9414 39.9938 23.0401C41.355 20.682 42.8788 18.4125 44.3934 16.143C45.081 15.1084 45.8243 15.1131 46.7023 16.0078C47.8963 17.2241 48.0218 18.6175 47.1623 20.0669C45.7174 22.5041 44.2726 24.9461 42.9067 27.43C42.4654 28.2362 42.168 29.1589 41.9868 30.0677C41.801 30.9857 42.3353 31.3306 43.1483 30.8366C43.8452 30.4125 44.5049 29.8673 45.067 29.2708C46.9625 27.2576 48.3841 24.8995 49.829 22.5507C51.1716 20.3744 52.5839 18.2447 54.0195 16.129C54.6978 15.127 55.4411 15.0991 56.282 15.9845C57.2251 16.9771 57.843 18.3752 56.8116 20.0203C55.0834 22.7791 53.5689 25.6731 51.9986 28.5251C51.7384 29.0005 51.599 29.5597 51.4875 30.1003C51.3249 30.8832 51.757 31.2607 52.4539 30.9065C53.1461 30.5523 53.8197 30.1096 54.4098 29.6016C56.9928 27.3834 58.958 24.6478 60.6955 21.7492C61.4946 20.4164 62.2333 19.0463 62.9674 17.6715C63.0881 17.4432 63.1114 17.0843 63.0324 16.8327C62.7536 15.9799 62.749 15.141 63.116 14.3348C63.8872 12.6431 65.1788 11.52 66.9953 11.1053C68.4634 10.7697 69.3832 11.6831 68.9883 13.1418C68.6724 14.3022 68.1382 15.402 67.6875 16.5251C67.5946 16.7534 67.4599 16.9678 67.3437 17.1868C67.3855 17.2614 67.4227 17.336 67.4645 17.4105H67.4552ZM79.1302 29.6715C79.2556 31.009 79.9571 31.4564 81.0721 30.8273C81.6017 30.529 82.1035 30.1422 82.5448 29.7228C84.812 27.5511 86.5867 24.9974 88.0083 22.2152C88.5751 21.1107 89.0025 19.9084 89.3231 18.7107C89.5972 17.6855 88.905 17.1496 87.9061 17.5224C87.5344 17.6622 87.1674 17.8672 86.8562 18.1142C86.3405 18.5243 85.8434 18.9624 85.3927 19.4424C83.2417 21.7445 81.532 24.3682 80.0175 27.1178C79.5854 27.896 79.4182 28.8187 79.1302 29.6762V29.6715ZM33.2062 18.9624C33.248 17.6668 32.6673 17.2101 31.7893 17.6156C31.1853 17.8952 30.6046 18.3006 30.1214 18.762C28.198 20.5888 26.7485 22.7791 25.5546 25.1185C24.8252 26.5492 24.2863 28.0871 23.7195 29.597C23.5197 30.1282 23.4036 30.7993 23.9611 31.1908C24.5511 31.6009 25.1504 31.2327 25.5824 30.8413C26.507 29.9978 27.3571 29.075 28.2399 28.1849C28.7277 27.691 28.881 27.1084 28.8949 26.4001C28.9367 24.1632 29.982 22.5135 31.9937 21.4929C32.1934 21.3904 32.4583 21.2599 32.5233 21.0781C32.816 20.2812 33.0483 19.4657 33.2109 18.9577L33.2062 18.9624Z" fill="black"/>
<path d="M22.0237 6.15147C21.1503 6.24934 20.4488 6.3239 19.7473 6.41245C16.2676 6.86449 12.8157 7.47497 9.45216 8.4909C7.75644 9.00352 6.09788 9.61401 4.66697 10.6998C3.95615 11.2404 3.38472 11.8882 3.18959 12.7969C2.92943 14.0086 3.64024 14.9173 4.87603 14.9546C6.11181 14.9919 7.26398 14.6144 8.2396 13.92C9.42893 13.0765 10.5346 12.1026 11.6032 11.1053C12.2675 10.4901 12.6996 10.4295 13.2757 11.1472C14.0469 12.1026 14.0933 13.3795 13.3779 14.4839C12.5323 15.7934 11.2965 16.6183 9.85635 17.1123C7.00381 18.0909 4.25813 17.9837 1.87483 15.9239C-0.601394 13.7849 -0.615332 10.5367 1.77727 8.30449C3.27322 6.90643 5.10367 6.10021 7.00381 5.44312C10.4324 4.25477 13.9679 3.54642 17.5452 3.01515C22.27 2.31612 40.0031 0 44.7743 0C46.2889 0 47.6362 0.45204 48.7186 1.51923C49.0438 1.84078 49.4062 2.41865 49.3319 2.79612C49.2204 3.38797 48.5142 3.36467 47.9846 3.38797C45.0298 3.52312 31.2364 4.94448 30.0564 5.14487C28.9646 5.28002 27.9565 5.52701 27.6684 5.76468C26.939 6.18876 26.3676 7.1208 25.7636 8.00158C20.1515 16.2129 15.0875 24.755 10.4603 33.5628C10.4092 33.656 10.3674 33.7539 10.3209 33.8517C9.72162 35.11 9.12231 35.3104 7.91904 34.5694C7.44052 34.2712 6.99917 33.8704 6.63215 33.4417C6.01425 32.724 5.82377 31.8851 6.293 31.009C7.62635 28.5345 8.89466 26.0179 10.3395 23.6086C13.6288 18.1189 17.0945 12.7457 20.8902 7.58682C21.2154 7.14876 21.5638 6.72934 22.0191 6.15147H22.0237Z" fill="black"/>
<path d="M115.354 15.2948C116.111 15.6443 116.78 15.9053 117.402 16.2595C117.742 16.4505 118.044 16.7628 118.276 17.0797C118.773 17.7507 118.536 18.3146 117.714 18.3612C116.459 18.4358 115.205 18.4498 113.951 18.4451C113.449 18.4451 113.133 18.6082 112.868 19.0416C111.154 21.8424 109.402 24.6199 108.213 27.7003C107.985 28.2921 107.813 28.9166 107.688 29.5411C107.405 30.9624 108.125 31.6195 109.537 31.256C110.81 30.9251 111.832 30.1609 112.808 29.3267C114.666 27.7329 116.171 25.8269 117.556 23.823C118.16 22.9469 118.61 22.9282 119.298 23.7391C120.185 24.7876 120.236 26.0785 119.423 27.197C118.081 29.0331 116.557 30.6875 114.657 31.9644C113.138 32.985 111.47 33.6327 109.644 33.6514C107.549 33.6747 105.797 32.8451 104.561 31.0836C104.427 30.8925 104.297 30.7061 104.115 30.4545C103.869 30.6595 103.665 30.8319 103.46 31.009C102.271 32.0296 101.021 32.943 99.4742 33.3391C98.2895 33.642 97.1559 33.5069 96.0967 32.8731C93.6948 31.4424 92.7006 28.7535 93.7041 26.1531C95.1629 22.3783 97.3882 19.0509 99.7901 15.8307C100.236 15.2342 100.77 15.183 101.416 15.621C102.522 16.376 103.539 18.4125 102.336 20.0436C100.427 22.6346 98.6891 25.3562 97.4858 28.3667C97.2303 29.0051 97.0956 29.7135 97.0212 30.4032C96.9655 30.9298 97.3278 31.1815 97.8064 30.9438C98.4846 30.6082 99.1722 30.2261 99.739 29.7321C102.173 27.5977 104.255 25.1651 105.774 22.2758C106.457 20.9756 107.219 19.722 107.957 18.4218C107.558 18.1096 107.121 17.8626 106.815 17.4991C106.564 17.1962 106.28 16.7068 106.364 16.4039C106.443 16.129 106.977 15.9053 107.349 15.8028C107.874 15.6583 108.441 15.5791 108.989 15.5977C109.584 15.621 109.899 15.36 110.22 14.8987C111.665 12.8156 113.138 10.7511 114.62 8.69129C115.219 7.85245 115.823 7.80119 116.594 8.46294C117.918 9.60003 118.132 11.2591 117.147 12.6711C116.538 13.5426 115.948 14.4233 115.354 15.2948Z" fill="black"/>
<path d="M103.925 13.8548C102.155 13.8548 101.23 12.6338 101.695 10.9235C102.127 9.33906 103.855 8.22993 105.435 8.52818C106.889 8.80313 107.623 10.0241 107.196 11.4455C106.782 12.8156 105.374 13.8548 103.925 13.8548Z" fill="black"/>
</svg>
